<svg width="14" height="14" viewBox="0 0 14 14" fill="none" xmlns="http://www.w3.org/2000/svg">
<path d="M13.9999 6.99998C14.0015 7.20506 13.9392 7.40554 13.8215 7.57356C13.7039 7.74157 13.5369 7.86877 13.3437 7.93748L9.37866 9.37935L7.93742 13.3437C7.86638 13.5351 7.73847 13.7002 7.57089 13.8167C7.4033 13.9333 7.20405 13.9957 6.99992 13.9957C6.79578 13.9957 6.59653 13.9333 6.42894 13.8167C6.26136 13.7002 6.13345 13.5351 6.06242 13.3437L4.62117 9.37873L0.656165 7.93748C0.464788 7.86644 0.299735 7.73854 0.18318 7.57095C0.0666245 7.40336 0.00415039 7.20411 0.00415039 6.99998C0.00415039 6.79584 0.0666245 6.59659 0.18318 6.42901C0.299735 6.26142 0.464788 6.13351 0.656165 6.06248L4.62117 4.62123L6.06242 0.656226C6.13345 0.464849 6.26136 0.299796 6.42894 0.183241C6.59653 0.0666856 6.79578 0.00421143 6.99992 0.00421143C7.20405 0.00421143 7.4033 0.0666856 7.57089 0.183241C7.73847 0.299796 7.86638 0.464849 7.93742 0.656226L9.37929 4.62123L13.3437 6.06248C13.5369 6.13118 13.7039 6.25838 13.8215 6.42639C13.9392 6.59441 14.0015 6.79489 13.9999 6.99998Z" fill="#FFDE71"/>
</svg>
