<svg width="161" height="161" viewBox="0 0 161 161" fill="none" xmlns="http://www.w3.org/2000/svg">
<path d="M57.021 13.4167C51.6835 13.4167 46.5646 15.5371 42.7905 19.3112C39.0163 23.0854 36.896 28.2043 36.896 33.5417C36.896 38.8792 39.0163 43.9981 42.7905 47.7723C46.5646 51.5464 51.6835 53.6667 57.021 53.6667H103.979C109.317 53.6667 114.436 51.5464 118.21 47.7723C121.984 43.9981 124.104 38.8792 124.104 33.5417C124.104 28.2043 121.984 23.0854 118.21 19.3112C114.436 15.5371 109.317 13.4167 103.979 13.4167H57.021ZM103.979 60.3751C98.6419 60.3751 93.523 62.4954 89.7488 66.2696C85.9746 70.0437 83.8543 75.1626 83.8543 80.5001C83.8543 85.8376 85.9746 90.9564 89.7488 94.7306C93.523 98.5048 98.6419 100.625 103.979 100.625C109.317 100.625 114.436 98.5048 118.21 94.7306C121.984 90.9564 124.104 85.8376 124.104 80.5001C124.104 75.1626 121.984 70.0437 118.21 66.2696C114.436 62.4954 109.317 60.3751 103.979 60.3751ZM36.896 80.5001C36.896 75.1626 39.0163 70.0437 42.7905 66.2696C46.5646 62.4954 51.6835 60.3751 57.021 60.3751H77.146V100.625H57.021C51.6835 100.625 46.5646 98.5048 42.7905 94.7306C39.0163 90.9564 36.896 85.8376 36.896 80.5001ZM57.021 107.333C53.0407 107.333 49.1497 108.514 45.8402 110.725C42.5306 112.936 39.9511 116.08 38.4279 119.757C36.9047 123.434 36.5062 127.481 37.2827 131.385C38.0592 135.288 39.9759 138.874 42.7905 141.689C45.605 144.503 49.1909 146.42 53.0948 147.197C56.9987 147.973 61.0451 147.575 64.7225 146.051C68.3999 144.528 71.543 141.949 73.7543 138.639C75.9657 135.33 77.146 131.439 77.146 127.458V107.333H57.021Z" fill="black"/>
</svg>
